<?xml version="1.0" standalone="no"?>
<!DOCTYPE svg PUBLIC "-//W3C//DTD SVG 20010904//EN"
 "http://www.w3.org/TR/2001/REC-SVG-20010904/DTD/svg10.dtd">
<svg version="1.0" xmlns="http://www.w3.org/2000/svg"
 width="512.000000pt" height="512.000000pt" viewBox="0 0 512.000000 512.000000"
 preserveAspectRatio="xMidYMid meet">

<g transform="translate(0.000000,512.000000) scale(0.100000,-0.100000)"
fill="#000000" stroke="none">
<path d="M0 2560 l0 -2560 2560 0 2560 0 0 2560 0 2560 -2560 0 -2560 0 0
-2560z m3046 1630 c176 -87 267 -275 220 -457 -14 -56 -59 -142 -75 -144 -91
-9 -121 2 -84 32 9 8 29 41 45 74 72 154 2 339 -158 412 -48 22 -66 24 -132
21 -90 -5 -148 -29 -210 -88 -47 -46 -51 -47 -92 -22 l-30 19 28 39 c74 102
197 156 340 150 69 -3 95 -9 148 -36z m-92 -141 c22 -6 56 -29 81 -53 118
-118 89 -322 -55 -396 -28 -14 -50 -17 -103 -13 l-67 6 0 33 c0 90 -43 202
-106 281 -19 23 -34 46 -34 51 0 15 69 72 104 88 38 16 127 18 180 3z m-423
-82 c122 -59 208 -180 217 -307 l5 -70 -52 0 -51 0 0 48 c0 93 -74 198 -170
241 -53 24 -155 27 -212 7 -97 -35 -170 -136 -174 -241 l-3 -60 -48 0 -48 0
-3 38 c-4 46 22 138 54 194 43 73 137 146 224 174 14 5 66 7 115 6 73 -3 100
-8 146 -30z m-85 -146 c55 -25 110 -92 124 -152 20 -82 28 -79 -205 -79 -188
0 -205 1 -207 18 -8 93 50 184 137 216 55 20 102 19 151 -3z m1130 -116 c59
-24 64 -51 64 -354 0 -251 1 -271 18 -271 9 0 35 -9 58 -19 61 -28 74 -69 74
-229 0 -70 -5 -144 -10 -164 -13 -44 -58 -85 -105 -94 l-35 -6 0 -127 c0 -69
-5 -144 -11 -166 -14 -53 -54 -110 -94 -135 -32 -20 -51 -20 -1010 -20 l-977
0 -39 39 c-34 33 -39 45 -39 83 0 50 20 83 94 152 l45 43 3 574 c3 568 3 574
25 614 12 22 38 51 59 65 32 21 51 25 142 28 96 4 104 3 99 -13 -4 -9 -7 -32
-7 -51 l0 -34 -64 0 c-102 0 -146 -24 -146 -79 l0 -21 740 0 c407 0 740 -3
740 -7 0 -5 -125 -133 -278 -285 -239 -239 -281 -276 -301 -271 -27 7 -47 44
-35 66 5 9 86 93 179 189 94 95 174 179 178 186 6 9 -118 12 -608 12 l-615 0
0 -432 0 -433 288 288 c218 218 294 288 309 285 11 -1 87 -67 168 -146 81 -78
149 -141 151 -140 1 2 180 180 397 396 l395 392 -65 0 -65 0 5 28 c3 15 10 39
15 53 l10 26 109 -5 c59 -2 122 -10 139 -17z m-2007 -2012 c47 -100 89 -179
93 -175 4 4 41 86 82 182 l76 175 63 3 64 3 7 -188 c3 -103 9 -230 12 -280 l6
-93 -56 0 -56 0 -1 123 c-1 67 -4 154 -8 193 l-6 71 -70 -164 -69 -163 -47 0
-47 0 -47 98 c-25 53 -59 124 -75 157 l-28 60 -1 -150 c-1 -82 -4 -167 -7
-187 -7 -38 -7 -38 -55 -38 l-49 0 0 128 c0 71 3 197 7 281 l6 152 60 -3 59
-3 87 -182z m1073 90 c-2 -54 -2 -114 0 -132 l3 -35 113 132 112 132 65 0 c36
0 65 -2 65 -4 0 -4 -11 -17 -144 -168 l-77 -88 111 -135 c61 -74 115 -137 121
-140 24 -16 3 -25 -55 -25 l-64 0 -92 110 c-50 61 -95 110 -98 110 -4 0 -19
-12 -34 -25 -26 -23 -28 -29 -28 -110 l0 -85 -55 0 -55 0 0 280 0 280 58 0 57
0 -3 -97z m697 -53 c66 -33 76 -63 79 -247 4 -156 3 -163 -16 -163 -11 0 -34
-3 -51 -6 -27 -6 -33 -3 -38 14 -5 20 -5 20 -36 1 -22 -13 -50 -19 -88 -19
-71 0 -118 29 -137 84 -35 107 48 186 196 186 47 0 52 2 52 22 0 40 -28 58
-89 58 -31 0 -69 -7 -85 -15 -39 -20 -40 -20 -54 18 -16 44 -16 44 11 59 73
39 188 43 256 8z m431 -1 c56 -24 54 -22 39 -52 -27 -52 -36 -56 -77 -36 -44
23 -95 24 -116 3 -26 -25 -3 -51 62 -70 31 -9 73 -25 94 -35 83 -42 70 -167
-22 -214 -47 -24 -155 -19 -216 9 -28 13 -55 29 -58 35 -4 6 7 26 24 44 l31
34 46 -23 c53 -27 100 -31 129 -10 31 24 7 47 -77 74 -83 27 -113 50 -129 98
-30 90 67 182 178 169 23 -2 65 -14 92 -26z m-1581 -137 l55 -144 28 79 c15
43 40 108 54 146 l26 67 54 0 c30 0 54 -2 54 -5 0 -5 -60 -160 -150 -387 -65
-167 -83 -192 -144 -204 -36 -6 -116 11 -116 26 0 4 8 22 17 39 15 25 23 30
52 28 29 -2 37 3 52 29 l19 30 -80 203 c-43 111 -82 211 -85 222 -6 19 -3 20
52 17 l58 -3 54 -143z"/>
<path d="M3086 3124 c-287 -284 -446 -434 -459 -434 -13 0 -76 55 -168 147
l-148 146 -371 -369 c-203 -203 -369 -373 -367 -379 2 -5 21 -11 43 -12 39 -3
42 0 368 322 278 272 333 322 348 314 28 -15 40 -46 28 -69 -6 -11 -133 -143
-283 -293 l-272 -272 820 -3 c451 -1 830 0 843 3 12 3 31 20 42 38 17 28 20
50 20 170 l0 137 -122 0 c-108 0 -129 3 -173 24 -92 42 -148 129 -147 227 0
72 28 135 84 190 63 61 88 69 233 69 l125 0 0 240 c0 132 -1 240 -2 239 -2 0
-201 -196 -442 -435z"/>
<path d="M3258 2953 c-59 -37 -86 -139 -53 -203 8 -16 28 -38 44 -49 27 -20
43 -21 229 -21 234 0 212 -15 212 145 0 160 21 145 -209 145 -165 0 -200 -3
-223 -17z m162 -75 c45 -48 11 -128 -55 -128 -39 0 -75 37 -75 78 0 63 87 96
130 50z"/>
<path d="M3235 1505 c-5 -2 -23 -6 -38 -9 -62 -14 -57 -90 7 -101 63 -12 115
34 104 92 -3 17 -46 28 -73 18z"/>
</g>
</svg>
